<svg xmlns="http://www.w3.org/2000/svg" width="178.812" height="31.46" viewBox="0 0 178.812 31.46">
  <defs>
    <style>
      .cls-1 {
        fill: #fff;
        fill-rule: evenodd;
        opacity: 0.8;
      }
    </style>
  </defs>
  <path id="Твитер" class="cls-1" d="M185.865,1443.23a15.69,15.69,0,1,1-15.692,15.69A15.687,15.687,0,0,1,185.865,1443.23Zm5.968,18.25a3.1,3.1,0,0,0-.758-2.2,3.7,3.7,0,0,0-2.016-1.09v-0.07a2.881,2.881,0,0,0,1.371-1.14,3.211,3.211,0,0,0,.5-1.77,3.133,3.133,0,0,0-.362-1.52,2.6,2.6,0,0,0-1.091-1.05,4.514,4.514,0,0,0-1.446-.48,17.993,17.993,0,0,0-2.269-.11h-4.8v13.59H186.4a8.906,8.906,0,0,0,2.331-.25,4.774,4.774,0,0,0,1.686-.86,3.673,3.673,0,0,0,1.032-1.27,3.909,3.909,0,0,0,.384-1.78h0Zm-4.373-5.59a1.5,1.5,0,0,0-.169-0.67,1,1,0,0,0-.527-0.5,2.11,2.11,0,0,0-.8-0.17c-0.309,0-.767-0.01-1.375-0.01h-0.237v2.88h0.43c0.583,0,.994-0.01,1.229-0.02a2.045,2.045,0,0,0,.726-0.19,1.129,1.129,0,0,0,.563-0.53,1.9,1.9,0,0,0,.157-0.79h0Zm0.856,5.53a1.673,1.673,0,0,0-.255-0.99,1.533,1.533,0,0,0-.767-0.54,2.658,2.658,0,0,0-.853-0.13c-0.362-.01-0.848-0.01-1.456-0.01h-0.63v3.4h0.184c0.888,0,1.5-.01,1.843-0.02a2.867,2.867,0,0,0,1.04-.24,1.381,1.381,0,0,0,.68-0.59A1.813,1.813,0,0,0,188.316,1461.42Zm-51.451-18.19a15.69,15.69,0,1,1-15.692,15.69A15.687,15.687,0,0,1,136.865,1443.23Zm0.773,24.99v-9.29h2.743l0.285-3.09h-3.028l0-1.86c0-.89.085-1.26,1.367-1.26h1.764v-3.42h-2.792c-3.294,0-4.082,1.54-4.082,4.34v2.2h-1.889v3.09H133.9v9.29h3.738Zm-49.773-24.99a15.69,15.69,0,1,1-15.692,15.69A15.688,15.688,0,0,1,87.865,1443.23Zm6.272,23.61a1.745,1.745,0,0,0,1.745-1.75v-12.31a1.743,1.743,0,0,0-1.745-1.74H81.809a1.743,1.743,0,0,0-1.745,1.74v12.31a1.745,1.745,0,0,0,1.745,1.75H94.136Zm-1.375-9.1a4.921,4.921,0,1,1-9.529,0h-1.38v6.78a0.609,0.609,0,0,0,.611.61H93.529a0.609,0.609,0,0,0,.611-0.61v-6.78H92.761ZM88,1456.13a2.848,2.848,0,1,1,0,5.68A2.84,2.84,0,0,1,88,1456.13Zm3.7-3.31H93.56a0.609,0.609,0,0,1,.611.61v1.86a0.609,0.609,0,0,1-.611.61H91.7a0.609,0.609,0,0,1-.611-0.61v-1.86A0.609,0.609,0,0,1,91.7,1452.82Zm-53.268-9.65a15.69,15.69,0,1,1-15.692,15.69A15.688,15.688,0,0,1,38.427,1443.17Zm9.137,10.81a7.331,7.331,0,0,1-2.092.57,3.663,3.663,0,0,0,1.6-2.02,7.4,7.4,0,0,1-2.313.89,3.645,3.645,0,0,0-6.207,3.32,10.316,10.316,0,0,1-7.507-3.81,3.655,3.655,0,0,0,1.127,4.87,3.68,3.68,0,0,1-1.65-.46c0,0.02,0,.03,0,0.05a3.651,3.651,0,0,0,2.922,3.57,3.788,3.788,0,0,1-.959.13,3.859,3.859,0,0,1-.685-0.07,3.643,3.643,0,0,0,3.4,2.53,7.29,7.29,0,0,1-4.524,1.56,8.286,8.286,0,0,1-.869-0.05,10.354,10.354,0,0,0,15.946-8.73c0-.16,0-0.31-0.011-0.47A7.328,7.328,0,0,0,47.565,1453.98Z" transform="translate(-22.75 -1443.16)"/>
</svg>
